<svg id="Capa_1" data-name="Capa 1" xmlns="http://www.w3.org/2000/svg" width="500" height="500" viewBox="0 0 500 500"><defs><style>.cls-1{fill:#512bd4;}.cls-2{fill:#fff;}.cls-3{fill:#72acf1;}</style></defs><title>logo</title><rect class="cls-1" width="500" height="500"/><path class="cls-2" d="M106.87,305.44H90.6V275.67h16.27v1.91H92.68v11.26h13.4v1.91H92.68v12.77h14.19v1.91Z"/><path class="cls-2" d="M128.54,305.44V291.09q0-3.34-1.41-4.86a5.68,5.68,0,0,0-4.36-1.52q-4,0-5.81,2t-1.84,6.51v12.22h-2V283.31h1.71l0.39,3h0.12q2.16-3.46,7.68-3.46,7.53,0,7.53,8.08v14.48h-2Z"/><path class="cls-2" d="M143.55,304.06a15,15,0,0,0,3.34-.33v1.63a10.73,10.73,0,0,1-3.38.49,5.5,5.5,0,0,1-4.33-1.57q-1.4-1.57-1.4-4.93V285.06H134.5v-1.18l3.28-.92,1-5h1v5.36h6.5v1.75h-6.5v14a6.39,6.39,0,0,0,.9,3.77A3.25,3.25,0,0,0,143.55,304.06Z"/><path class="cls-2" d="M151.39,277.16q0-2,1.28-2a1.14,1.14,0,0,1,1,.51,2.51,2.51,0,0,1,.36,1.45,2.56,2.56,0,0,1-.36,1.45,1.13,1.13,0,0,1-1,.53Q151.39,279.13,151.39,277.16Zm2.3,28.28h-2V283.31h2v22.13Z"/><path class="cls-2" d="M166.94,304.06a15,15,0,0,0,3.34-.33v1.63a10.73,10.73,0,0,1-3.38.49,5.5,5.5,0,0,1-4.33-1.57q-1.4-1.57-1.4-4.93V285.06H157.9v-1.18l3.28-.92,1-5h1v5.36h6.5v1.75h-6.5v14a6.39,6.39,0,0,0,.9,3.77A3.25,3.25,0,0,0,166.94,304.06Z"/><path class="cls-2" d="M171.36,283.31h2.08l4.68,12.42q2.14,5.72,2.71,7.72H181q0.85-2.63,2.79-7.84l4.68-12.3h2.08L180.59,309a20.07,20.07,0,0,1-2,4.24,5.39,5.39,0,0,1-1.9,1.65,5.79,5.79,0,0,1-2.64.55,9.08,9.08,0,0,1-2.59-.43v-1.75a9.55,9.55,0,0,0,2.55.33,3.42,3.42,0,0,0,1.83-.49,4.57,4.57,0,0,0,1.44-1.52,19.94,19.94,0,0,0,1.49-3.26q0.84-2.23,1.09-2.9Z"/><path class="cls-2" d="M207.63,305.44h-2.08V275.67h16.31v1.91H207.63v12.63h13.44v1.93H207.63v13.3Z"/><path class="cls-2" d="M234.69,282.88a17.39,17.39,0,0,1,3,.29l-0.39,1.94a11.81,11.81,0,0,0-2.87-.35,5.58,5.58,0,0,0-4.64,2.4,9.8,9.8,0,0,0-1.81,6.07v12.22h-2V283.31h1.71l0.2,4H228a9.39,9.39,0,0,1,2.91-3.43A6.82,6.82,0,0,1,234.69,282.88Z"/><path class="cls-2" d="M255.65,305.44l-0.51-3.5H255a10.5,10.5,0,0,1-3.43,3,9.15,9.15,0,0,1-4.16.89,7.2,7.2,0,0,1-5.07-1.67,6,6,0,0,1-1.81-4.62,5.7,5.7,0,0,1,2.7-5q2.7-1.79,7.81-1.89l4.22-.12V291a7.54,7.54,0,0,0-1.28-4.77,5,5,0,0,0-4.13-1.61,13.82,13.82,0,0,0-6.37,1.71l-0.75-1.75a16.87,16.87,0,0,1,7.21-1.71q3.64,0,5.45,1.89t1.8,5.9v14.72h-1.49ZM247.5,304a7,7,0,0,0,7.64-7.66v-2.18l-3.87.16q-4.66.23-6.65,1.46a4.19,4.19,0,0,0-2,3.84,4.13,4.13,0,0,0,1.27,3.23A5.17,5.17,0,0,0,247.5,304Z"/><path class="cls-2" d="M292,305.44V290.92a7.22,7.22,0,0,0-1.26-4.72,4.79,4.79,0,0,0-3.87-1.49,6.31,6.31,0,0,0-5,1.87q-1.63,1.87-1.63,5.88v13h-2.06V290.31q0-5.6-5.13-5.6-3.48,0-5.07,2t-1.59,6.49v12.22h-2V283.31H266l0.43,3h0.12a6.36,6.36,0,0,1,2.61-2.56,7.77,7.77,0,0,1,3.73-.91q5.23,0,6.72,3.93h0.08a7.51,7.51,0,0,1,2.9-2.91,8.34,8.34,0,0,1,4.14-1,7.1,7.1,0,0,1,5.44,1.94q1.81,1.93,1.81,6.15v14.48h-2Z"/><path class="cls-2" d="M310.06,305.85a9.65,9.65,0,0,1-7.52-3q-2.7-3-2.7-8.33a13,13,0,0,1,2.61-8.48,8.6,8.6,0,0,1,7-3.19,7.59,7.59,0,0,1,6.17,2.73A11.27,11.27,0,0,1,317.9,293v1.63H302q0,4.56,2.13,7a7.49,7.49,0,0,0,6,2.4,18.61,18.61,0,0,0,3.33-.26,20.17,20.17,0,0,0,3.63-1.14v1.83a16.25,16.25,0,0,1-3.46,1.11A19.35,19.35,0,0,1,310.06,305.85Zm-0.59-21.18a6.63,6.63,0,0,0-5.13,2.11,9.94,9.94,0,0,0-2.26,6.08h13.68a9.65,9.65,0,0,0-1.67-6A5.51,5.51,0,0,0,309.47,284.67Z"/><path class="cls-2" d="M341.7,305.44l-4.85-14.8q-0.47-1.51-1.2-4.42h-0.12l-0.43,1.51-0.92,3-4.93,14.76h-2l-6.33-22.13h2.16l3.54,12.83q1.24,4.76,1.63,7h0.12q1.2-4.76,1.75-6.33l4.56-13.5h1.83l4.34,13.46q1.47,4.78,1.79,6.33h0.12q0.16-1.32,1.63-7.09l3.38-12.71h2l-6,22.13H341.7Z"/><path class="cls-2" d="M372.47,294.34q0,5.42-2.63,8.46a9.07,9.07,0,0,1-7.25,3,9.38,9.38,0,0,1-5.13-1.41,9,9,0,0,1-3.4-4,14.66,14.66,0,0,1-1.18-6.07q0-5.42,2.63-8.44a9,9,0,0,1,7.21-3,8.88,8.88,0,0,1,7.16,3.06Q372.47,289,372.47,294.34Zm-17.47,0a11.26,11.26,0,0,0,2,7.12,7.57,7.57,0,0,0,11.34,0,11.27,11.27,0,0,0,2-7.12q0-4.58-2-7.11a6.89,6.89,0,0,0-5.69-2.52,6.78,6.78,0,0,0-5.65,2.51Q355,289.74,355,294.34Z"/><path class="cls-2" d="M387.31,282.88a17.39,17.39,0,0,1,3,.29l-0.39,1.94a11.81,11.81,0,0,0-2.87-.35,5.58,5.58,0,0,0-4.64,2.4,9.8,9.8,0,0,0-1.81,6.07v12.22h-2V283.31h1.71l0.2,4h0.14a9.39,9.39,0,0,1,2.91-3.43A6.82,6.82,0,0,1,387.31,282.88Z"/><path class="cls-2" d="M396.8,295.73l11.3-12.42h2.44l-8.72,9.45,9.47,12.69h-2.42l-8.41-11.18-3.62,3.3v7.88h-2V273.76h2v15.88l-0.14,6.09h0.1Z"/><path class="cls-2" d="M125.46,224.44H102.92L95.17,244H90.89l22.31-55.71h2.47L137.52,244h-4.36Zm-21.14-3.49h19.85l-7.55-20q-0.95-2.35-2.28-6.53a61,61,0,0,1-2.24,6.6Z"/><path class="cls-2" d="M187.5,215.75q0,14-7.32,21.12T158.66,244H145.38V188.54h15q13.28,0,20.21,6.95T187.5,215.75Zm-4.21.15q0-11.92-6.05-17.93t-17.78-6H149.25V240.6h9.18Q183.29,240.6,183.29,215.9Z"/><path class="cls-2" d="M243,216.2q0,13.2-6.6,20.89t-18.21,7.68q-11.57,0-18.18-7.68t-6.6-21q0-13.24,6.66-20.85t18.2-7.61q11.61,0,18.18,7.64T243,216.2Zm-45.38,0q0,11.92,5.31,18.42t15.25,6.51q10,0,15.31-6.45t5.29-18.48q0-12-5.29-18.38t-15.24-6.39q-9.9,0-15.27,6.45T197.62,216.2Z"/><path class="cls-2" d="M362.6,243.76H331.27V188.36H362.6V196H340.32V211.1H361.2v7.58H340.32v17.39H362.6v7.69Z"/><path class="cls-2" d="M393.71,243.76h-9.06V196.13H368.36v-7.77H410v7.77H393.71v47.63Z"/><path class="cls-2" d="M313,188v29.39c0,2,.08,4.75.23,8.41s0.25,6.21.3,6.21H313.3l-27.17-44H275v30.88a21.89,21.89,0,0,1,9,2.81V215c0-3.89-.49-8.49-0.85-13.19l-0.5-2.77H283l27.24,45H321V188h-8Z"/><circle class="cls-3" cx="272.64" cy="239.59" r="13.35"/></svg>