<svg id="Capa_1" data-name="Capa 1" xmlns="http://www.w3.org/2000/svg" width="500" height="500" viewBox="0 0 500 500"><defs><style>.cls-1{fill:#fff;}</style></defs><title>logo</title><rect width="500" height="500"/><path class="cls-1" d="M309.82,312.41H236V182h73.78v18H257.36v35.51h49.16v17.84H257.36v41h52.46v18.11Z"/><path class="cls-1" d="M383.07,312.41H361.75V200.27H323.38V182h98.05v18.29H383.07V312.41Z"/><path class="cls-1" d="M193,182v68.32c0,4.82.19,11.33,0.55,19.93s0.61,14.75.73,14.75h-0.54l-64-103H104v71.84a47.78,47.78,0,0,1,20,6.62V244.61c0-9.16-.79-19.51-1.62-30.57l-0.82-6h0.71l64.15,105H213V182H193Z"/><circle class="cls-1" cx="98" cy="302.59" r="31.44"/></svg>