<svg id="Capa_1" data-name="Capa 1" xmlns="http://www.w3.org/2000/svg" width="500" height="300" viewBox="0 0 500 300"><title>logo</title><path d="M303.82,218.41H230V88h73.78v18H251.36v35.51h49.16v17.84H251.36v41h52.46v18.11Z"/><path d="M377.07,218.41H355.75V106.27H317.38V88h98.05v18.29H377.07V218.41Z"/><path d="M187,88v68.32c0,4.82.19,11.33,0.55,19.93s0.61,14.75.73,14.75h-0.54l-64-103H98v71.84a47.78,47.78,0,0,1,20,6.62V150.61c0-9.16-.79-19.51-1.62-30.57l-0.82-6h0.71l64.15,105H207V88H187Z"/><circle cx="92" cy="208.59" r="31.44"/></svg>