<svg id="Capa_1" data-name="Capa 1" xmlns="http://www.w3.org/2000/svg" width="870" height="300" viewBox="0 0 870 300"><defs><style>.cls-1{fill:#512bd4;}.cls-2{fill:#fff;}.cls-3{fill:#72acf1;}</style></defs><title>logo</title><rect class="cls-1" width="870" height="300"/><path class="cls-2" d="M179.4,172.89H126.33L108.1,219H98L150.54,87.83h5.81L207.82,219H197.54Zm-49.77-8.22h46.73l-17.78-47.09q-2.23-5.54-5.36-15.37a143.4,143.4,0,0,1-5.27,15.55Z"/><path class="cls-2" d="M298.42,185.31q0,16.35-12,25.91t-31.94,9.56q-23.95,0-36.73-5.27V206.4q14.12,6,36,6,16.08,0,25.51-7.37a23.38,23.38,0,0,0,9.43-19.35q0-7.42-3.13-12.29t-10.19-8.89q-7.06-4-20.73-8.67-20-6.88-27.66-14.88t-7.64-21.31a29.29,29.29,0,0,1,11.48-23.9q11.48-9.25,29.53-9.25a86.44,86.44,0,0,1,34.58,7l-3.31,7.86q-16.26-6.79-31.1-6.79-14.48,0-23.05,6.7t-8.58,18.23q0,7.24,2.64,11.88a24.22,24.22,0,0,0,8.62,8.35q6,3.71,20.55,8.89,15.28,5.27,23,10.23t11.21,11.26A30.73,30.73,0,0,1,298.42,185.31Z"/><path class="cls-2" d="M395.52,125.89q0,18.94-12.87,29T346.19,165H326v54h-9.11V88.36h32Q395.52,88.36,395.52,125.89ZM326,157.17h18q22.07,0,31.9-7.28t9.83-23.63q0-15.1-9.29-22.38t-28.77-7.28H326v60.58Z"/><path class="cls-2" d="M666.82,218.39H593V87.95h73.78v18H614.36v35.51h49.16v17.84H614.36v41h52.46v18.11Z"/><path class="cls-2" d="M740.07,218.39H718.75V106.24H680.38V87.95h98.05v18.29H740.07V218.39Z"/><path class="cls-2" d="M550,88v68.29c0,4.82.19,11.35,0.55,19.94s0.61,14.77.73,14.77h-0.54l-64-103H461v71.81a47.78,47.78,0,0,1,20,6.62V150.58c0-9.16-.79-19.5-1.62-30.56l-0.82-6h0.71l64.15,105H570V88H550Z"/><circle class="cls-3" cx="455" cy="208.56" r="31.44"/></svg>