<svg id="Capa_1" data-name="Capa 1" xmlns="http://www.w3.org/2000/svg" width="500" height="500" viewBox="0 0 500 500"><defs><style>.cls-1{fill:#512bd4;}.cls-2{fill:#fff;}.cls-3{fill:#72acf1;}</style></defs><title>logo</title><rect class="cls-1" width="500" height="500"/><path class="cls-2" d="M184.41,196.17H127.89l-19.41,49.09H97.73L153.68,105.6h6.18l54.8,139.67H203.72Zm-53-8.75h49.76l-18.93-50.14q-2.38-5.9-5.71-16.37a152.73,152.73,0,0,1-5.61,16.55Z"/><path class="cls-2" d="M311.14,209.4q0,17.41-12.8,27.59t-34,10.18q-25.5,0-39.1-5.61v-9.7q15,6.38,38.34,6.37,17.13,0,27.16-7.85a24.9,24.9,0,0,0,10-20.6q0-7.9-3.33-13.08t-10.85-9.47q-7.52-4.28-22.07-9.23-21.31-7.33-29.45-15.84t-8.13-22.69A31.19,31.19,0,0,1,239.17,114q12.22-9.85,31.45-9.85a92,92,0,0,1,36.82,7.42L303.91,120q-17.32-7.23-33.11-7.23-15.41,0-24.55,7.14t-9.13,19.41q0,7.71,2.81,12.65a25.77,25.77,0,0,0,9.18,8.9q6.37,3.95,21.88,9.47,16.27,5.61,24.45,10.89t11.94,12Q311.14,199.89,311.14,209.4Z"/><path class="cls-2" d="M414.53,146.13q0,20.17-13.7,30.92T362,187.8h-21.5v57.47H330.8V106.17h34.06Q414.53,106.17,414.53,146.13Zm-74,33.3h19.12q23.5,0,34-7.75t10.47-25.17q0-16.08-9.9-23.83t-30.64-7.75h-23v64.51Z"/><path class="cls-2" d="M303.55,398.39H229.77V267.95h73.78v18H251.09v35.51h49.16v17.84H251.09v41h52.46v18.11Z"/><path class="cls-2" d="M376.8,398.39H355.48V286.24H317.12V267.95h98.05v18.29H376.8V398.39Z"/><path class="cls-2" d="M187,268v68.29c0,4.82.06,11.35,0.41,19.94S187.88,371,188,371h-0.54l-64-103H98v71.81a47.78,47.78,0,0,1,20,6.62V330.58c0-9.16-.92-19.5-1.76-30.56l-1-6H116l64.15,105H207V268H187Z"/><circle class="cls-3" cx="91.73" cy="388.56" r="31.44"/></svg>