<svg id="Capa_1" data-name="Capa 1" xmlns="http://www.w3.org/2000/svg" width="1300" height="300" viewBox="0 0 1300 300"><defs><style>.cls-1{fill:#512bd4;}.cls-2{fill:#fff;}.cls-3{fill:#72acf1;}</style></defs><title>logo</title><rect class="cls-1" x="-1" width="1300" height="300"/><path class="cls-2" d="M178.4,172.89H125.33L107.1,219H97L149.54,87.83h5.81L206.82,219H196.54Zm-49.77-8.22h46.73l-17.78-47.09q-2.23-5.54-5.36-15.37a143.4,143.4,0,0,1-5.27,15.55Z"/><path class="cls-2" d="M297.42,185.31q0,16.35-12,25.91t-31.94,9.56q-23.95,0-36.73-5.27V206.4q14.12,6,36,6,16.08,0,25.51-7.37a23.38,23.38,0,0,0,9.43-19.35q0-7.42-3.13-12.29t-10.19-8.89q-7.06-4-20.73-8.67-20-6.88-27.66-14.88t-7.64-21.31a29.29,29.29,0,0,1,11.48-23.9q11.48-9.25,29.53-9.25a86.44,86.44,0,0,1,34.58,7l-3.31,7.86q-16.26-6.79-31.1-6.79-14.48,0-23.05,6.7t-8.58,18.23q0,7.24,2.64,11.88a24.22,24.22,0,0,0,8.62,8.35q6,3.71,20.55,8.89,15.28,5.27,23,10.23t11.21,11.26A30.73,30.73,0,0,1,297.42,185.31Z"/><path class="cls-2" d="M394.52,125.89q0,18.94-12.87,29T345.19,165H325v54h-9.11V88.36h32Q394.52,88.36,394.52,125.89ZM325,157.17h18q22.07,0,31.9-7.28t9.83-23.63q0-15.1-9.29-22.38t-28.77-7.28H325v60.58Z"/><path class="cls-2" d="M890.14,219L841.44,98.37h-0.71q0.71,11.08.71,22.7V219h-8.76V88.36H846.8l46.29,114.91h0.54L939.91,88.36h13.76V219h-9.2V120q0-10.36,1.07-21.45h-0.71L895.94,219h-5.81Z"/><path class="cls-2" d="M1067.77,88.36h9.92L1028.82,219h-8L972.07,88.36h9.74l32.88,88.91q7.51,20.1,10.1,30.2,1.79-6.7,7.06-20.82Z"/><path class="cls-2" d="M1151.95,94.71q-24.57,0-38.69,15.73t-14.12,43.07q0,28,13.31,43.43t38.07,15.46a103.08,103.08,0,0,0,30.2-4.2v8q-13,4.56-32.35,4.56-27.52,0-43.34-17.78t-15.82-49.68q0-19.92,7.55-35.12a54.65,54.65,0,0,1,21.71-23.46q14.16-8.26,32.93-8.27,19.12,0,34.22,7.15l-3.66,8.22A66.29,66.29,0,0,0,1151.95,94.71Z"/><path class="cls-2" d="M659.82,218.39H586V87.95h73.78v18H607.36v35.51h49.16v17.84H607.36v41h52.46v18.11Z"/><path class="cls-2" d="M733.07,218.39H711.75V106.24H673.38V87.95h98.05v18.29H733.07V218.39Z"/><path class="cls-2" d="M543,88v68.29c0,4.82.19,11.35,0.55,19.94s0.61,14.77.73,14.77h-0.54l-64-103H454v71.81a47.78,47.78,0,0,1,20,6.62V150.58c0-9.16-.79-19.5-1.62-30.56l-0.82-6h0.71l64.15,105H563V88H543Z"/><circle class="cls-3" cx="448" cy="208.56" r="31.44"/></svg>