<svg id="Capa_1" data-name="Capa 1" xmlns="http://www.w3.org/2000/svg" width="500" height="500" viewBox="0 0 500 500"><defs><style>.cls-1{fill:#512bd4;}.cls-2{fill:#72acf1;}</style></defs><title>logo</title><path class="cls-1" d="M143.25,365.44l-44.8-111H97.79q0.66,10.19.66,20.88v90.09H90.39V245.26h13L146,351h0.49L189,245.26H201.7V365.44h-8.47V274.36q0-9.53,1-19.73h-0.66l-45,110.81h-5.34Z"/><path class="cls-1" d="M306.67,245.26h9.12l-45,120.18h-7.4l-44.8-120.18h9l30.25,81.79q6.9,18.5,9.29,27.78,1.64-6.16,6.49-19.15Z"/><path class="cls-1" d="M384.1,251.1q-22.61,0-35.59,14.47t-13,39.62q0,25.73,12.25,40t35,14.22a94.83,94.83,0,0,0,27.78-3.86v7.4q-11.92,4.19-29.76,4.19-25.32,0-39.87-16.36T326.4,305q0-18.33,6.95-32.3a50.26,50.26,0,0,1,20-21.58q13-7.6,30.29-7.6,17.59,0,31.48,6.58l-3.37,7.56A61,61,0,0,0,384.1,251.1Z"/><path class="cls-1" d="M129.16,186.16H104.28l-8.55,21.62H91l24.63-61.5h2.72l24.13,61.5h-4.82Zm-23.33-3.85h21.91l-8.34-22.08q-1-2.6-2.51-7.21a67.23,67.23,0,0,1-2.47,7.29Z"/><path class="cls-1" d="M185,192a14.7,14.7,0,0,1-5.63,12.15q-5.63,4.48-15,4.48-11.23,0-17.22-2.47v-4.27q6.62,2.81,16.88,2.81,7.54,0,12-3.46a11,11,0,0,0,4.42-9.07,10.47,10.47,0,0,0-1.47-5.76,13.39,13.39,0,0,0-4.78-4.17,58.88,58.88,0,0,0-9.72-4.06q-9.38-3.23-13-7t-3.58-10A13.73,13.73,0,0,1,153.27,150q5.38-4.34,13.84-4.34a40.53,40.53,0,0,1,16.21,3.27l-1.55,3.69a37.82,37.82,0,0,0-14.58-3.18q-6.79,0-10.81,3.14a10.27,10.27,0,0,0-4,8.55,11.19,11.19,0,0,0,1.24,5.57,11.35,11.35,0,0,0,4,3.92,55.25,55.25,0,0,0,9.64,4.17,52,52,0,0,1,10.77,4.8,15.4,15.4,0,0,1,5.26,5.28A14.41,14.41,0,0,1,185,192Z"/><path class="cls-1" d="M230.48,164.12q0,8.88-6,13.61t-17.09,4.73h-9.47v25.3h-4.27V146.53h15Q230.48,146.53,230.48,164.12Zm-32.59,14.66h8.42q10.35,0,15-3.42t4.61-11.08q0-7.08-4.36-10.49T208,150.38H197.89v28.4Z"/><path class="cls-1" d="M357.67,207.49H323.08V146.33h34.59v8.45H333.08v16.65h23v8.37h-23V199h24.59v8.49Z"/><path class="cls-1" d="M392,207.49H382V154.91H364v-8.58h46v8.58H392v52.58Z"/><path class="cls-1" d="M303,146v32.37c0,2.26,0,5.5.21,9.53s0.24,7.1.29,7.1h-0.25l-30-49H261v34a25,25,0,0,1,10,3.1V175.7c0-4.29-.59-9.41-1-14.6l-0.61-3.1h0.33l30.07,50H312V146h-9Z"/><circle class="cls-2" cx="258.37" cy="202.88" r="14.74"/></svg>